<?xml version="1.0" standalone="no"?>
<!DOCTYPE svg PUBLIC "-//W3C//DTD SVG 20010904//EN"
 "http://www.w3.org/TR/2001/REC-SVG-20010904/DTD/svg10.dtd">
<svg version="1.0" xmlns="http://www.w3.org/2000/svg"
 width="1080.000000pt" height="1080.000000pt" viewBox="0 0 1080.000000 1080.000000"
 preserveAspectRatio="xMidYMid meet">

<g transform="translate(0.000000,1080.000000) scale(0.100000,-0.100000)"
fill="#000000" stroke="none">
<path d="M5290 10353 c-38 -13 -99 -69 -370 -338 -209 -208 -341 -331 -370
-346 -37 -19 -60 -24 -125 -23 -79 1 -86 3 -483 157 -380 148 -407 157 -472
157 -90 0 -178 -43 -225 -110 -20 -27 -90 -195 -179 -428 -81 -211 -155 -401
-166 -421 -19 -38 -81 -100 -121 -121 -46 -25 -93 -30 -473 -50 -470 -24 -487
-25 -545 -51 -82 -36 -149 -122 -166 -210 -3 -18 3 -207 14 -418 28 -520 28
-515 -11 -592 -18 -34 -49 -74 -68 -90 -19 -15 -209 -116 -423 -224 -335 -171
-393 -203 -426 -242 -49 -55 -71 -118 -71 -201 0 -64 1 -67 207 -471 l207
-406 1 -85 c0 -68 -5 -93 -22 -126 -12 -22 -142 -188 -289 -370 -147 -181
-276 -349 -288 -374 -15 -33 -21 -65 -21 -120 0 -65 4 -83 30 -130 33 -59 38
-64 485 -427 287 -232 303 -252 308 -372 3 -70 -5 -107 -107 -488 -64 -238
-111 -431 -111 -457 0 -94 68 -208 148 -250 16 -8 215 -65 442 -126 414 -111
461 -127 518 -175 65 -54 77 -98 147 -545 36 -228 73 -437 82 -465 33 -102
150 -185 263 -185 26 0 233 30 461 66 309 49 427 64 464 59 57 -7 132 -45 168
-84 13 -14 124 -181 247 -371 123 -190 239 -362 259 -383 54 -58 104 -80 192
-85 61 -3 85 0 120 15 24 11 195 118 379 238 184 120 353 227 375 239 57 30
193 30 250 0 22 -12 191 -119 375 -239 184 -120 355 -227 379 -238 35 -15 59
-18 120 -15 88 5 138 27 192 85 20 21 136 193 259 383 122 190 234 357 247
371 36 39 112 77 168 84 37 5 155 -10 464 -59 228 -36 435 -66 461 -66 113 0
230 83 263 185 9 28 46 237 82 465 70 447 82 491 147 545 57 48 104 64 518
175 227 61 426 118 442 126 80 42 148 156 148 250 0 26 -47 219 -111 457 -102
381 -110 418 -107 488 5 120 21 140 308 372 447 363 452 368 485 427 26 47 30
65 30 130 0 55 -6 87 -21 120 -12 25 -141 193 -288 374 -147 182 -277 348
-289 370 -17 33 -22 58 -22 126 l1 85 207 406 c206 404 207 407 207 471 0 83
-22 146 -71 201 -33 39 -91 71 -426 242 -214 108 -404 209 -423 224 -19 16
-50 56 -67 90 -41 77 -41 79 -12 592 11 206 18 391 14 412 -13 90 -82 179
-166 216 -58 26 -75 27 -545 51 -380 20 -427 25 -473 50 -40 21 -102 83 -122
121 -10 21 -82 203 -160 406 -77 202 -148 383 -157 402 -42 89 -145 151 -254
151 -63 0 -93 -10 -470 -157 -397 -154 -404 -156 -483 -157 -65 -1 -88 4 -125
23 -29 15 -161 138 -370 346 -287 285 -331 324 -374 339 -61 20 -156 20 -216
-1z m1744 -3145 c34 -10 88 -58 324 -292 181 -180 290 -295 302 -322 26 -53
26 -133 1 -182 -30 -57 -2877 -2898 -2923 -2917 -48 -19 -118 -19 -166 0 -26
11 -271 250 -816 793 -826 825 -826 825 -826 917 1 82 27 116 308 399 283 284
324 316 407 316 87 -1 107 -18 573 -483 l442 -442 1098 1098 c1142 1142 1124
1125 1206 1127 16 0 47 -5 70 -12z"/>
</g>
</svg>
