<?xml version="1.0" standalone="no"?>
<!DOCTYPE svg PUBLIC "-//W3C//DTD SVG 20010904//EN"
 "http://www.w3.org/TR/2001/REC-SVG-20010904/DTD/svg10.dtd">
<svg version="1.0" xmlns="http://www.w3.org/2000/svg"
 width="1080.000000pt" height="1080.000000pt" viewBox="0 0 1080.000000 1080.000000"
 preserveAspectRatio="xMidYMid meet">

<g transform="translate(0.000000,1080.000000) scale(0.100000,-0.100000)"
fill="#000000" stroke="none">
<path d="M5290 10353 c-38 -13 -99 -69 -370 -338 -210 -208 -341 -331 -370
-346 -35 -18 -61 -23 -120 -24 -73 0 -85 4 -483 158 -384 148 -412 157 -477
157 -90 0 -178 -43 -226 -110 -19 -28 -88 -193 -179 -430 -80 -211 -155 -401
-165 -421 -26 -51 -102 -115 -158 -133 -34 -11 -158 -21 -437 -36 -468 -23
-486 -25 -544 -51 -84 -37 -153 -126 -166 -216 -4 -21 3 -209 14 -418 28 -510
28 -508 -10 -583 -17 -35 -46 -74 -67 -90 -20 -16 -208 -116 -416 -222 -208
-106 -394 -207 -413 -223 -61 -53 -86 -110 -91 -202 l-4 -82 208 -413 209
-412 0 -82 c0 -63 -5 -90 -22 -121 -11 -22 -141 -188 -288 -369 -146 -182
-276 -348 -287 -370 -47 -92 -29 -229 41 -307 20 -22 184 -160 366 -307 377
-306 387 -317 393 -437 4 -66 -5 -107 -108 -491 -100 -372 -112 -426 -107
-479 7 -95 67 -189 147 -230 16 -8 215 -65 442 -126 247 -66 432 -121 461
-137 52 -28 99 -80 122 -136 8 -19 44 -221 80 -448 37 -227 69 -424 72 -438
27 -116 150 -210 275 -210 26 0 234 30 460 66 286 45 427 64 458 60 59 -8 143
-49 173 -86 14 -16 124 -183 247 -372 122 -189 239 -360 259 -382 54 -58 121
-86 206 -86 47 0 84 7 111 19 23 11 201 122 395 248 195 127 369 235 388 241
44 15 138 15 182 0 19 -6 193 -114 388 -241 194 -126 372 -237 395 -248 27
-12 64 -19 111 -19 85 0 152 28 206 86 20 22 137 193 259 382 123 189 233 356
247 372 30 37 114 78 173 86 31 4 172 -15 458 -60 226 -36 434 -66 460 -66 69
0 134 25 187 72 83 73 75 45 170 641 30 191 62 364 70 383 23 56 69 108 122
136 29 16 214 71 461 137 227 61 426 118 442 126 80 41 140 135 147 230 5 53
-7 107 -107 479 -103 384 -112 425 -108 491 6 120 16 131 393 437 182 147 346
285 366 307 70 78 88 215 41 307 -11 22 -141 188 -287 370 -147 181 -277 347
-288 369 -17 31 -22 58 -22 121 l0 82 209 412 208 413 -4 82 c-5 92 -30 149
-91 202 -19 16 -205 117 -413 223 -208 106 -396 206 -416 222 -21 16 -50 55
-67 90 -38 75 -38 71 -10 587 11 212 17 402 14 420 -17 90 -84 174 -170 212
-46 21 -84 24 -485 45 -311 16 -450 27 -486 39 -60 18 -136 81 -164 134 -10
20 -85 210 -165 421 -91 237 -160 402 -179 430 -48 67 -136 110 -227 110 -65
0 -91 -9 -476 -157 -398 -154 -410 -158 -483 -158 -59 1 -85 6 -120 24 -29 15
-160 138 -370 346 -287 284 -331 324 -374 339 -61 20 -156 20 -216 -1z m200
-2753 c49 -14 120 -65 151 -108 15 -21 125 -253 244 -517 268 -591 257 -569
304 -601 37 -24 67 -28 609 -89 313 -35 588 -69 610 -76 68 -20 133 -77 170
-149 32 -62 34 -69 30 -151 -3 -71 -9 -93 -31 -132 -19 -33 -157 -165 -450
-432 -232 -212 -432 -402 -444 -423 -14 -23 -23 -54 -23 -80 0 -24 50 -285
110 -579 110 -536 122 -616 98 -684 -49 -145 -217 -237 -358 -196 -32 9 -250
127 -515 278 -515 293 -546 309 -595 309 -49 0 -79 -16 -595 -309 -259 -147
-484 -269 -514 -277 -177 -52 -371 94 -371 280 0 37 41 263 110 597 61 296
110 557 110 581 0 26 -9 57 -23 80 -12 21 -212 211 -444 423 -293 267 -431
399 -450 432 -22 39 -28 61 -31 132 -4 82 -2 89 30 151 37 72 102 129 170 149
22 7 296 41 608 76 388 43 577 68 598 79 17 9 39 27 50 41 11 14 122 251 247
528 125 276 241 523 258 548 32 48 103 104 153 119 40 12 142 12 184 0z"/>
</g>
</svg>
